# xmcd
#
# Track frame offsets:
#	150
#	11879
#	21867
#	36624
#	50778
#	68052
#	82220
#	94825
#	106608
#	121317
#	132001
#	145018
#	156608
#	168367
#	178369
#	193125
#	207280
#	224555
#	238723
#	250506
#	265215
#	278239
#
# Disc length: 3861 seconds
#
# Revision: 0
# Processed by: cddbd v1.5.2PL0 Copyright (c) Steve Scherf et al.
# Submitted via: audiograbber 1.83.01
#
DISCID=520f1316
DTITLE=paquita - vol 3
DYEAR=1900
DGENRE=ranchero
TTITLE0=soltero y maduro
TTITLE1=y tu paleta
TTITLE2=no chifle usted
TTITLE3=cheque en blanco
TTITLE4=callejera
TTITLE5=amor perdido
TTITLE6=con que derecho
TTITLE7=confesion
TTITLE8=fallaste corazon
TTITLE9=me voy me voy
TTITLE10=sabor de engano
TTITLE11=mi unico camino
TTITLE12=1
TTITLE13=2
TTITLE14=3
TTITLE15=4
TTITLE16=5
TTITLE17=6
TTITLE18=7
TTITLE19=8
TTITLE20=9
TTITLE21=10
EXTD=
EXTT0=
EXTT1=
EXTT2=
EXTT3=
EXTT4=
EXTT5=
EXTT6=
EXTT7=
EXTT8=
EXTT9=
EXTT10=
EXTT11=
EXTT12=
EXTT13=
EXTT14=
EXTT15=
EXTT16=
EXTT17=
EXTT18=
EXTT19=
EXTT20=
EXTT21=
PLAYORDER=
